<?xml version="1.0" encoding="UTF-8" standalone="no"?>
<!-- Created with Inkscape (http://www.inkscape.org/) -->

<svg
   width="191.55832mm"
   height="193.32224mm"
   viewBox="0 0 191.55832 193.32224"
   version="1.1"
   id="svg1"
   xml:space="preserve"
   inkscape:export-filename="bitmap.svg"
   inkscape:export-xdpi="96"
   inkscape:export-ydpi="96"
   sodipodi:docname="logoheader.svg"
   inkscape:version="1.4.2 (f4327f4, 2025-05-13)"
   xmlns:inkscape="http://www.inkscape.org/namespaces/inkscape"
   xmlns:sodipodi="http://sodipodi.sourceforge.net/DTD/sodipodi-0.dtd"
   xmlns="http://www.w3.org/2000/svg"
   xmlns:svg="http://www.w3.org/2000/svg"><sodipodi:namedview
     id="namedview1"
     pagecolor="#ffffff"
     bordercolor="#000000"
     borderopacity="0.25"
     inkscape:showpageshadow="2"
     inkscape:pageopacity="0.0"
     inkscape:pagecheckerboard="0"
     inkscape:deskcolor="#d1d1d1"
     inkscape:document-units="mm"
     showgrid="false"
     inkscape:zoom="0.68862937"
     inkscape:cx="357.23135"
     inkscape:cy="350.69663"
     inkscape:window-width="1920"
     inkscape:window-height="991"
     inkscape:window-x="-9"
     inkscape:window-y="-9"
     inkscape:window-maximized="1"
     inkscape:current-layer="layer1"><inkscape:page
       x="0"
       y="0"
       width="191.55832"
       height="193.32225"
       id="page2"
       margin="0"
       bleed="0" /></sodipodi:namedview><defs
     id="defs1" /><g
     inkscape:label="Capa 1"
     inkscape:groupmode="layer"
     id="layer1"
     transform="translate(-10.320029,-55.67132)"><g
       id="g1"
       transform="translate(2.0083595,9.9368031)"><path
         style="fill:#f8fcfb"
         d="m 38.402598,193.90616 c -7.583338,-0.46954 -14.97134,-1.93154 -20.968914,-4.14951 -3.856746,-1.42628 -3.850462,-1.49209 0.226597,-2.37304 8.691655,-1.87805 24.661794,-7.15637 38.981945,-12.884 26.950952,-10.77956 41.985195,-13.86528 59.407234,-12.19307 2.72019,0.26109 3.21358,0.88517 0.70961,0.89758 -3.71556,0.0184 -9.99145,2.5896 -12.97376,5.31527 -9.09952,8.31645 1.17371,20.22895 21.47219,24.89846 2.33774,0.53777 -0.3882,0.51873 -5.39172,-0.0377 -2.85539,-0.31753 -6.62036,-0.72761 -8.36661,-0.91131 -1.74625,-0.1837 -3.73062,-0.40976 -4.40972,-0.50236 -8.70341,-1.18676 -21.517155,-1.00184 -37.394446,0.53966 -3.97757,0.38617 -8.184445,0.788 -9.348611,0.89296 -1.164167,0.10495 -2.751667,0.25032 -3.527778,0.32303 -3.606315,0.33788 -14.218231,0.4439 -18.416017,0.18399 z M 145.895,192.9739 c -13.77396,-1.76641 -22.9589,-5.83627 -31.10178,-13.78127 -4.27012,-4.16634 -4.69447,-6.25285 -1.9288,-9.48391 4.79053,-5.59666 15.63504,-6.0352 25.34809,-1.02505 13.44573,6.93553 26.16624,5.03515 36.61562,-5.4702 l 3.35673,-3.37471 3.16966,2.23631 c 1.74331,1.22997 3.56544,2.50433 4.04918,2.83191 0.48374,0.32758 2.89624,2.04387 5.36112,3.81397 l 4.48159,3.21836 -1.63376,2.24526 c -6.47161,8.8939 -16.71608,15.18453 -29.02042,17.82005 -3.98509,0.85358 -15.10451,1.43002 -18.69723,0.96928 z M 18.542226,136.75119 V 94.417853 h 12.438752 12.438751 l 0.498285,0.79375 c 1.488688,2.371425 6.891232,11.214067 12.554908,20.549307 7.926371,13.06476 13.426428,22.08305 16.566668,27.16389 1.319119,2.13431 3.050914,4.99181 3.848434,6.35 l 1.450036,2.46945 0.09027,-28.6632 0.09027,-28.663197 h 11.110426 11.110424 l 0.0565,21.784027 c 0.031,11.98122 0.11474,21.22841 0.18598,20.54931 1.48952,-14.19925 10.05657,-27.82436 22.36494,-35.56938 15.82453,-9.957564 39.03933,-10.989083 55.40829,-2.461995 5.26689,2.743685 15.90322,11.666865 15.80826,13.262085 -0.0143,0.23965 -1.87922,1.73939 -11.44465,9.20343 -2.33145,1.81927 -4.44009,3.46809 -4.68586,3.66406 -0.32722,0.2609 -0.98841,-0.155 -2.46945,-1.55333 -17.17716,-16.21783 -42.3625,-11.39107 -49.42443,9.47217 -2.92646,8.6457 -1.35363,21.18221 3.51539,28.02013 1.06733,1.49893 0.90596,1.49501 -3.57914,-0.087 -7.03182,-2.48023 -15.47345,-4.1679 -20.97329,-4.19302 -3.85762,-0.0176 -3.89798,-0.0435 -4.30447,-2.76318 l -0.35179,-2.35374 -0.0531,2.50582 -0.0531,2.50583 -5.027082,0.2106 c -9.271817,0.38843 -26.691465,4.59167 -32.982185,7.95836 -0.686166,0.36722 -1.115396,-0.22897 -6.635256,-9.21622 -3.245898,-5.28486 -7.283523,-11.83134 -8.9725,-14.54773 -1.688977,-2.71639 -3.770154,-6.12951 -4.624838,-7.58472 l -1.553971,-2.64583 -0.0979,5.99722 c -0.05384,3.29847 -0.05384,12.925 0,21.39227 l 0.0979,15.39505 -1.763889,0.59061 c -7.783693,2.60624 -17.442711,5.1318 -19.626576,5.1318 h -1.010924 z m 26.415094,34.8929 c 1.431426,-0.57965 2.67084,-0.98567 2.754253,-0.90226 0.171272,0.17128 -4.477269,2.00269 -5.011552,1.97443 -0.189912,-0.01 0.825872,-0.49252 2.257299,-1.07217 z m 3.335832,-1.26142 c 0.129352,-0.12935 0.341019,-0.12935 0.47037,0 0.129352,0.12935 0.02352,0.23519 -0.235185,0.23519 -0.258704,0 -0.364537,-0.10584 -0.235185,-0.23519 z m 0.940741,-0.29398 c 0,-0.097 0.07937,-0.17639 0.176389,-0.17639 0.09701,0 0.176389,0.0794 0.176389,0.17639 0,0.097 -0.07938,0.17639 -0.176389,0.17639 -0.09701,0 -0.176389,-0.0794 -0.176389,-0.17639 z m 1.058333,-0.35278 c 0,-0.097 0.07937,-0.17639 0.176389,-0.17639 0.09701,0 0.176389,0.0794 0.176389,0.17639 0,0.097 -0.07937,0.17639 -0.176389,0.17639 -0.09701,0 -0.176389,-0.0794 -0.176389,-0.17639 z m 2.116667,-1.05833 c 0,-0.097 0.07937,-0.17639 0.176389,-0.17639 0.09701,0 0.176389,0.0794 0.176389,0.17639 0,0.097 -0.07937,0.17639 -0.176389,0.17639 -0.09701,0 -0.176389,-0.0794 -0.176389,-0.17639 z m 1.058333,-0.35278 c 0,-0.097 0.07938,-0.17639 0.176389,-0.17639 0.09701,0 0.176389,0.0794 0.176389,0.17639 0,0.097 -0.07937,0.17639 -0.176389,0.17639 -0.09701,0 -0.176389,-0.0794 -0.176389,-0.17639 z m 0.705556,-0.35278 c 0,-0.097 0.07937,-0.17638 0.176389,-0.17638 0.09701,0 0.176388,0.0794 0.176388,0.17638 0,0.097 -0.07937,0.17639 -0.176388,0.17639 -0.09701,0 -0.176389,-0.0794 -0.176389,-0.17639 z m 1.411111,-0.52916 c 0.291041,-0.18809 0.687916,-0.34198 0.881944,-0.34198 0.194028,0 0.114653,0.15389 -0.176389,0.34198 -0.291041,0.18808 -0.687916,0.34197 -0.881944,0.34197 -0.194028,0 -0.114653,-0.15389 0.176389,-0.34197 z m 1.411111,-0.52917 c 0,-0.097 0.07937,-0.17639 0.176389,-0.17639 0.09701,0 0.176389,0.0794 0.176389,0.17639 0,0.097 -0.07937,0.17639 -0.176389,0.17639 -0.09701,0 -0.176389,-0.0794 -0.176389,-0.17639 z m 0.705555,-0.35278 c 0,-0.097 0.07937,-0.17639 0.176389,-0.17639 0.09701,0 0.176389,0.0794 0.176389,0.17639 0,0.097 -0.07937,0.17639 -0.176389,0.17639 -0.09701,0 -0.176389,-0.0794 -0.176389,-0.17639 z m 1.058334,-0.35277 c 0,-0.097 0.07937,-0.17639 0.176389,-0.17639 0.09701,0 0.176389,0.0794 0.176389,0.17639 0,0.097 -0.07937,0.17638 -0.176389,0.17638 -0.09701,0 -0.176389,-0.0794 -0.176389,-0.17638 z m 0.705555,-0.35278 c 0,-0.097 0.07938,-0.17639 0.176389,-0.17639 0.09701,0 0.176389,0.0794 0.176389,0.17639 0,0.097 -0.07937,0.17639 -0.176389,0.17639 -0.09701,0 -0.176389,-0.0794 -0.176389,-0.17639 z"
         id="path2" /><path
         style="fill:#2ca097"
         d="M 8.3116703,142.39563 V 45.734516 H 104.09084 199.87 v 96.661114 96.66112 H 104.09084 8.3116703 Z m 48.5069447,51.32654 c 0.776111,-0.0727 2.363611,-0.21808 3.527778,-0.32303 1.164166,-0.10496 5.371041,-0.50679 9.348611,-0.89296 15.877291,-1.5415 28.691036,-1.72642 37.394446,-0.53966 0.6791,0.0926 2.66347,0.31866 4.40972,0.50236 1.74625,0.1837 5.51122,0.59378 8.36661,0.91131 5.00352,0.55639 7.72946,0.57543 5.39172,0.0377 -20.29848,-4.66951 -30.57171,-16.58201 -21.47219,-24.89846 2.98231,-2.72567 9.2582,-5.29686 12.97376,-5.31527 2.50397,-0.0124 2.01058,-0.63649 -0.70961,-0.89758 -17.422039,-1.67221 -32.456282,1.41351 -59.407234,12.19307 -14.320151,5.72763 -30.29029,11.00595 -38.981945,12.884 -4.077059,0.88095 -4.083343,0.94676 -0.226597,2.37304 10.004791,3.69989 25.532753,5.26334 39.384931,3.96552 z m 107.773615,-1.71755 c 12.30434,-2.63552 22.54881,-8.92615 29.02042,-17.82005 l 1.63376,-2.24526 -4.48159,-3.21836 c -2.46488,-1.7701 -4.87738,-3.48639 -5.36112,-3.81397 -0.48374,-0.32758 -2.30587,-1.60194 -4.04918,-2.83191 l -3.16966,-2.23631 -3.35673,3.37471 c -10.44938,10.50535 -23.16989,12.40573 -36.61562,5.4702 -9.71305,-5.01015 -20.55756,-4.57161 -25.34809,1.02505 -2.76567,3.23106 -2.34132,5.31757 1.9288,9.48391 8.14288,7.945 17.32782,12.01486 31.10178,13.78127 3.59272,0.46074 14.71214,-0.1157 18.69723,-0.96928 z M 24.432269,178.21133 c 3.477836,-0.78507 9.988562,-2.66517 14.747457,-4.2586 l 1.763889,-0.59061 -0.0979,-15.39505 c -0.05384,-8.46727 -0.05384,-18.0938 0,-21.39227 l 0.0979,-5.99722 1.553971,2.64583 c 0.854684,1.45521 2.935861,4.86833 4.624838,7.58472 1.688977,2.71639 5.726602,9.26287 8.9725,14.54773 5.51986,8.98725 5.94909,9.58344 6.635256,9.21622 6.29072,-3.36669 23.710368,-7.56993 32.982185,-7.95836 l 5.027085,-0.2106 0.0531,-2.50583 0.0531,-2.50582 0.35179,2.35374 c 0.40649,2.71965 0.44685,2.74556 4.30447,2.76318 5.49984,0.0251 13.94147,1.71279 20.97329,4.19302 4.4851,1.58196 4.64647,1.58588 3.57914,0.087 -4.86902,-6.83792 -6.44185,-19.37443 -3.51539,-28.02013 7.06193,-20.86324 32.24727,-25.69 49.42443,-9.47217 1.48104,1.39833 2.14223,1.81423 2.46945,1.55333 0.24577,-0.19597 2.35441,-1.84479 4.68586,-3.66406 9.56543,-7.46404 11.43039,-8.96378 11.44465,-9.20343 0.0353,-0.59257 -6.7216,-7.22375 -9.43805,-9.26248 -14.77263,-11.087035 -38.12335,-12.981206 -56.13405,-4.553498 -15.57225,7.286688 -26.27241,22.027058 -28.00939,38.585268 -0.0712,0.6791 -0.15493,-8.56809 -0.18598,-20.54931 l -0.0565,-21.784027 H 89.629023 78.518597 l -0.09027,28.663197 -0.09027,28.6632 -1.450036,-2.46945 c -0.79752,-1.35819 -2.529315,-4.21569 -3.848434,-6.35 -3.14024,-5.08084 -8.640297,-14.09913 -16.566668,-27.16389 -5.663676,-9.33524 -11.06622,-18.177882 -12.554908,-20.549307 l -0.498285,-0.79375 H 30.980975 18.542226 v 42.333337 42.33334 h 1.010924 c 0.556008,0 2.751612,-0.39294 4.879119,-0.8732 z"
         id="path1"
         sodipodi:nodetypes="ccccccccccssssscssssssccsscssscsssssscscsscssscscccssscssssssscccccccsssscccccscc" /></g></g></svg>
